<svg width="14" height="12" viewBox="0 0 14 12" fill="none" xmlns="http://www.w3.org/2000/svg">
<path d="M2 7.99999V12H6.0068V7.99999H8.01019V12H12.017V7.99999L7.00849 3.51599L2 7.99999Z" fill="#C1C6CE"/>
<path d="M13.8512 6.365L12.017 4.751V0H10.0136V2.987L7.34111 0.635C7.32108 0.618 7.29804 0.612 7.277 0.598C7.25192 0.579705 7.22508 0.56396 7.19686 0.551C7.16592 0.540194 7.13408 0.532163 7.1017 0.527C7.07065 0.521 7.0406 0.515 7.00855 0.515C6.97749 0.515 6.94744 0.521 6.91639 0.527C6.88387 0.531918 6.85196 0.540299 6.82123 0.552C6.79318 0.563 6.76814 0.581 6.74109 0.598C6.72006 0.612 6.69602 0.618 6.67698 0.635L0.167943 6.365C0.0922247 6.43237 0.0387317 6.52106 0.0145146 6.61939C-0.00970242 6.71771 -0.00350676 6.82106 0.032285 6.9158C0.0680768 7.01054 0.131785 7.09223 0.215012 7.15011C0.298239 7.20798 0.397079 7.23932 0.498504 7.24C0.620642 7.24034 0.738647 7.19585 0.830066 7.115L7.00855 1.677L13.188 7.115C13.2888 7.19405 13.416 7.23164 13.5436 7.22004C13.6713 7.20845 13.7896 7.14855 13.8744 7.05264C13.9592 6.95673 14.004 6.83206 13.9997 6.70421C13.9954 6.57635 13.9422 6.45498 13.8512 6.365Z" fill="#C1C6CE"/>
</svg>
