<svg width="78" height="72" viewBox="0 0 78 72" fill="none" xmlns="http://www.w3.org/2000/svg">
<g clip-path="url(#clip0)">
<path d="M77.1088 20.545C76.7394 20.1737 76.2609 19.8724 75.7112 19.665C75.1614 19.4576 74.5555 19.3498 73.9412 19.35H22.8181L19.5461 11.965H4.02411C2.97224 11.965 1.96345 12.281 1.21966 12.8436C0.47587 13.4063 0.0580139 14.1693 0.0580139 14.965C0.0580139 15.7606 0.47587 16.5237 1.21966 17.0863C1.96345 17.6489 2.97224 17.965 4.02411 17.965H13.8389L31.6863 58.25H64.9474C65.9992 58.25 67.008 57.9339 67.7518 57.3713C68.4956 56.8087 68.9135 56.0456 68.9135 55.25C68.9135 54.4543 68.4956 53.6913 67.7518 53.1286C67.008 52.566 65.9992 52.25 64.9474 52.25H37.3936L35.1117 47.101H65.6771C66.5382 47.1009 67.3758 46.889 68.0636 46.4972C68.7514 46.1054 69.252 45.5549 69.4899 44.929L77.7526 23.179C77.9219 22.7322 77.9518 22.2617 77.8401 21.8047C77.7284 21.3477 77.4781 20.9164 77.1088 20.545V20.545ZM66.822 30.226H60.463V25.35H68.6742L66.822 30.226V30.226ZM43.5318 30.226V25.35H52.5308V30.225H43.5318V30.226ZM52.5308 36.226V41.101H43.5318V36.226H52.5308ZM35.5996 25.35V30.225H27.6369L25.4767 25.35H35.5996ZM30.2942 36.226H35.5996V41.101H32.4544L30.2942 36.226V36.226ZM60.463 41.101V36.226H64.5428L62.6907 41.101H60.463V41.101Z" fill="white"/>
<path d="M36.2317 71.875C40.4526 71.875 43.8744 69.2867 43.8744 66.094C43.8744 62.9012 40.4526 60.313 36.2317 60.313C32.0107 60.313 28.589 62.9012 28.589 66.094C28.589 69.2867 32.0107 71.875 36.2317 71.875Z" fill="white"/>
<path d="M59.2853 71.875C63.5063 71.875 66.928 69.2867 66.928 66.094C66.928 62.9012 63.5063 60.313 59.2853 60.313C55.0644 60.313 51.6426 62.9012 51.6426 66.094C51.6426 69.2867 55.0644 71.875 59.2853 71.875Z" fill="white"/>
<path d="M38.7819 9.69899L48.7593 15.191C49.0445 15.3485 49.3687 15.4609 49.7126 15.5214C50.0566 15.5819 50.4131 15.5893 50.7609 15.5432C51.1087 15.4971 51.4406 15.3984 51.7368 15.253C52.033 15.1076 52.2874 14.9185 52.4848 14.697C53.3388 13.761 53.0532 12.465 51.8502 11.802L48.713 10.076L61.1877 4.98599L67.3061 17H73.053L65.0626 1.30899C64.9273 1.04033 64.7189 0.796175 64.4508 0.592373C64.1828 0.388572 63.8611 0.229675 63.5066 0.125991C63.1556 0.0245596 62.7797 -0.0182168 62.4047 0.000598047C62.0298 0.0194129 61.6647 0.0993736 61.3345 0.234991L43.8202 7.38199L39.825 5.18299C39.2726 4.87814 38.5847 4.74832 37.9078 4.82116C37.2308 4.89399 36.6181 5.16373 36.2 5.57299L24.9878 16.371C24.7628 16.5554 24.5816 16.7679 24.4524 16.999H31.2027L38.7819 9.69899V9.69899Z" fill="white"/>
</g>
<defs>
<clipPath id="clip0">
<rect width="78" height="72" fill="white"/>
</clipPath>
</defs>
</svg>
