<svg width="60" height="60" viewBox="0 0 60 60" fill="none" xmlns="http://www.w3.org/2000/svg">
<path d="M0 0H39L60 21V60L0 0Z" fill="#EE3643"/>
<path d="M31.6806 19.31L35.3848 15.6058C35.9921 14.9986 36.3612 14.4933 36.4923 14.09C36.6391 13.6862 36.5424 13.3142 36.2021 12.974C35.8997 12.6716 35.5531 12.5192 35.1622 12.517C34.7713 12.5147 34.3888 12.6099 34.0147 12.8026L29.5939 17.2234L28.7774 16.4068L34.8499 10.3343L35.4396 10.9241L34.9433 11.7152L34.9774 11.7492C35.3396 11.6742 35.7186 11.6808 36.1144 11.7689C36.5177 11.8646 36.8895 12.0825 37.2297 12.4227C37.4717 12.6647 37.6469 12.9128 37.7555 13.1671C37.8716 13.429 37.9011 13.7095 37.844 14.0086C37.8025 14.3071 37.6662 14.6324 37.4352 14.9843C37.2118 15.3439 36.8774 15.7463 36.4321 16.1916L32.4971 20.1266L31.6806 19.31Z" fill="white"/>
<path d="M37.5649 24.3685C37.2053 24.3651 36.8371 24.2722 36.4602 24.0896C36.0833 23.907 35.7398 23.6608 35.4299 23.3508C35.0745 22.9954 34.8374 22.6126 34.7185 22.2022C34.6153 21.7913 34.6144 21.3613 34.7158 20.9121C34.8329 20.4624 35.0441 20.0017 35.3496 19.5299C35.6626 19.0656 36.062 18.5906 36.5478 18.1048C37.5842 17.0684 38.5513 16.4567 39.4491 16.2695C40.3469 16.0824 41.1209 16.3139 41.7711 16.9641C41.9828 17.1758 42.1624 17.4121 42.3099 17.6729C42.4649 17.9413 42.5405 18.2436 42.5368 18.58C42.5331 18.9163 42.4266 19.2875 42.2172 19.6935C42.0154 20.107 41.6675 20.5607 41.1736 21.0546C41.036 21.1922 40.8786 21.3345 40.7016 21.4813C40.5402 21.6275 40.3669 21.7781 40.1818 21.933L37.3012 19.0525C36.9531 19.4007 36.6638 19.7429 36.4333 20.0792C36.2029 20.4155 36.0431 20.7416 35.9541 21.0574C35.8732 21.3651 35.863 21.6626 35.9235 21.9498C35.9997 22.2366 36.1701 22.5122 36.4348 22.7768C36.6389 22.981 36.8797 23.1408 37.1573 23.2564C37.4424 23.3796 37.6945 23.4374 37.9137 23.4299L37.5649 24.3685ZM40.1847 20.4785C40.807 19.8864 41.173 19.3617 41.2825 18.9044C41.3919 18.4472 41.2955 18.0673 40.9931 17.7649C40.6453 17.4171 40.2276 17.2829 39.7401 17.3621C39.2526 17.4414 38.6863 17.7657 38.0413 18.3351L40.1847 20.4785Z" fill="white"/>
<path d="M47.4576 22.9421L44.9206 27.4978L43.9588 28.8678L43.9815 28.8905L45.3418 27.8704L49.635 25.1195L50.4062 25.8907L42.6918 30.5885L42.2269 30.1235L45.065 24.9945L45.9264 23.8156L45.9037 23.7929L44.7126 24.6664L39.6298 27.5265L39.1649 27.0615L43.8173 19.3017L44.6905 20.175L42.0295 24.5824L40.9876 25.8965L41.0103 25.9192L42.4167 24.921L46.8566 22.341L47.4576 22.9421Z" fill="white"/>
</svg>
