<svg id="Layer_1" data-name="Layer 1" xmlns="http://www.w3.org/2000/svg" viewBox="0 0 220 47"><defs><style>.cls-1{fill:#ed3643;}.cls-2{fill:#fff;}.cls-3{fill:#b52932;}</style></defs><title>Artboard 2</title><rect class="cls-1" width="220" height="47"/><polygon class="cls-2" points="56.12 15.9 59.9 15.9 59.9 31.65 62.03 31.65 62.03 15.9 65.81 15.9 65.81 14.15 56.12 14.15 56.12 15.9"/><polygon class="cls-2" points="67.81 31.65 75.85 31.65 75.85 29.9 69.94 29.9 69.94 23.4 75.14 23.4 75.14 21.65 69.94 21.65 69.94 15.9 75.85 15.9 75.85 14.15 67.81 14.15 67.81 31.65"/><polygon class="cls-2" points="87.39 14.15 85.26 14.15 82.66 21.15 80.06 14.15 77.93 14.15 81.12 22.65 77.57 31.65 79.7 31.65 82.66 24.15 85.61 31.65 87.74 31.65 84.19 22.65 87.39 14.15"/><polygon class="cls-2" points="96.9 21.9 91.93 21.9 91.93 14.15 89.8 14.15 89.8 31.65 91.93 31.65 91.93 23.65 96.9 23.65 96.9 31.65 99.03 31.65 99.03 14.15 96.9 14.15 96.9 21.9"/><path class="cls-2" d="M110.44,15.78a3.77,3.77,0,0,0-1.59-1.45,5.54,5.54,0,0,0-4.28,0,3.79,3.79,0,0,0-1.6,1.45,8,8,0,0,0-1,2.76,23,23,0,0,0-.34,4.36,22.93,22.93,0,0,0,.34,4.36A8.09,8.09,0,0,0,103,30a3.86,3.86,0,0,0,1.6,1.45,5.66,5.66,0,0,0,4.28,0A3.84,3.84,0,0,0,110.44,30a7.88,7.88,0,0,0,1-2.77,22.93,22.93,0,0,0,.34-4.36,23,23,0,0,0-.34-4.36A7.75,7.75,0,0,0,110.44,15.78Zm-1,10.82a9.52,9.52,0,0,1-.65,2.3,2.67,2.67,0,0,1-1,1.18,2.09,2.09,0,0,1-2.22,0,2.6,2.6,0,0,1-.95-1.18,9.08,9.08,0,0,1-.65-2.3,23.15,23.15,0,0,1-.25-3.7,23.24,23.24,0,0,1,.25-3.7,9.34,9.34,0,0,1,.65-2.3,2.62,2.62,0,0,1,.95-1.17,2,2,0,0,1,2.22,0,2.69,2.69,0,0,1,1,1.17,9.8,9.8,0,0,1,.65,2.3,23.4,23.4,0,0,1,.24,3.7A23.31,23.31,0,0,1,109.42,26.6Z"/><polygon class="cls-2" points="125.3 14.15 121.45 26.15 121.35 26.15 117.5 14.15 114.9 14.15 113.95 31.65 116.08 31.65 116.79 18.65 116.91 18.65 120.33 29.4 122.46 29.4 125.89 18.65 126.01 18.65 126.72 31.65 128.85 31.65 127.9 14.15 125.3 14.15"/><path class="cls-2" d="M134.81,14.15l-4,17.5h2.12l1.07-4.5h4.73l1.06,4.5h2.13l-4-17.5Zm-.47,11.25,2-8.75h.1l2,8.75Z"/><path class="cls-2" d="M151.82,15.25a3.35,3.35,0,0,0-1.61-1,8,8,0,0,0-2.41-.32,15,15,0,0,0-2,.12,10.41,10.41,0,0,0-1.81.38V31.65h2.12V26.28c.3.06.68.12,1.14.17a11.63,11.63,0,0,0,1.23.08,6,6,0,0,0,2-.31,3.06,3.06,0,0,0,1.39-1,5.11,5.11,0,0,0,.83-2,14.41,14.41,0,0,0,.27-3.05,13.13,13.13,0,0,0-.28-3A4.62,4.62,0,0,0,151.82,15.25ZM150.7,22.4a3.71,3.71,0,0,1-.56,1.43,2.05,2.05,0,0,1-1,.74,4,4,0,0,1-1.38.21h-1.66V15.53h1.66a4,4,0,0,1,1.38.21,2,2,0,0,1,1,.74,3.66,3.66,0,0,1,.56,1.42,12.73,12.73,0,0,1,.17,2.25A12.73,12.73,0,0,1,150.7,22.4Z"/><polygon class="cls-2" points="154.39 14.15 154.39 15.9 158.18 15.9 158.18 31.65 160.31 31.65 160.31 15.9 164.09 15.9 164.09 14.15 154.39 14.15"/><rect class="cls-3" y="42" width="220" height="5"/></svg>