<svg width="220" height="47" viewBox="0 0 220 47" fill="none" xmlns="http://www.w3.org/2000/svg">
<path fill-rule="evenodd" clip-rule="evenodd" d="M108.865 13.3307C109.524 13.6499 110.077 14.1546 110.455 14.7832C110.958 15.6233 111.297 16.5512 111.455 17.5177C111.707 18.9593 111.821 20.4217 111.795 21.8849C111.821 23.3482 111.707 24.8106 111.455 26.2522C111.299 27.2318 110.96 28.1731 110.455 29.0268C110.082 29.6486 109.541 30.1521 108.895 30.4792C107.523 31.0403 105.986 31.0403 104.613 30.4792C103.953 30.1574 103.398 29.6535 103.013 29.0268C102.506 28.1823 102.157 27.2522 101.983 26.2822C101.731 24.8406 101.617 23.3782 101.643 21.915C101.617 20.4517 101.731 18.9894 101.983 17.5477C102.143 16.5723 102.482 15.635 102.983 14.7832C103.365 14.1539 103.921 13.6492 104.583 13.3307C105.261 13.0464 105.989 12.9 106.724 12.9C107.459 12.9 108.187 13.0464 108.865 13.3307ZM108.805 27.9249C109.117 27.1874 109.336 26.4134 109.455 25.6211H109.435C109.62 24.3946 109.707 23.1553 109.695 21.915C109.713 20.6752 109.633 19.4359 109.455 18.2088C109.333 17.4172 109.114 16.6435 108.805 15.905C108.592 15.4251 108.245 15.0178 107.804 14.7331C107.476 14.5134 107.089 14.3962 106.694 14.3962C106.299 14.3962 105.912 14.5134 105.584 14.7331C105.159 15.0221 104.829 15.4296 104.633 15.905C104.319 16.6419 104.101 17.4162 103.983 18.2088C103.801 19.4356 103.718 20.6749 103.733 21.915C103.717 23.1551 103.801 24.3944 103.983 25.6211C104.098 26.4144 104.316 27.189 104.633 27.9249C104.826 28.4046 105.157 28.8161 105.584 29.1069C105.916 29.3158 106.301 29.4266 106.694 29.4266C107.087 29.4266 107.472 29.3158 107.804 29.1069C108.247 28.8204 108.595 28.4091 108.805 27.9249Z" fill="white"/>
<path d="M56.12 14.9029H59.901V30.6791H62.0316V14.9029H65.8127V13.15H56.12V14.9029Z" fill="white"/>
<path d="M67.8132 30.6791H75.8555V28.9262H69.9438V22.4154H75.1453V20.6625H69.9438V14.9029H75.8555V13.15H67.8132V30.6791Z" fill="white"/>
<path d="M85.2681 13.15H87.3987L84.1978 21.6641L87.7488 30.6791H85.6182L82.6674 23.1666L79.7066 30.6791H77.576L81.127 21.6641L77.9361 13.15H80.0667L82.6674 20.1616L85.2681 13.15Z" fill="white"/>
<path d="M96.9113 20.9129H91.9399V13.15H89.8093V30.6791H91.9399V22.6658H96.9113V30.6791H99.0419V13.15H96.9113V20.9129Z" fill="white"/>
<path d="M125.319 13.15L121.468 25.1699H121.368L117.517 13.15H114.916L113.966 30.6791H116.097L116.807 17.6575H116.927L120.348 28.4253H122.478L125.909 17.6575H126.029L126.74 30.6791H128.87L127.92 13.15H125.319Z" fill="white"/>
<path fill-rule="evenodd" clip-rule="evenodd" d="M130.831 30.6791L134.832 13.15H137.943L141.944 30.6791H139.813L138.753 26.1716H134.022L132.951 30.6791H130.831ZM136.362 15.6542L134.362 24.4187H138.463L136.462 15.6542H136.362Z" fill="white"/>
<path fill-rule="evenodd" clip-rule="evenodd" d="M151.847 14.2522C151.417 13.7701 150.858 13.4223 150.236 13.2506C149.454 13.0214 148.641 12.9133 147.825 12.93C147.157 12.9254 146.488 12.9656 145.825 13.0502C145.211 13.1231 144.605 13.2504 144.014 13.4309V30.6795H146.135V25.3005C146.435 25.3606 146.815 25.4207 147.275 25.4708C147.684 25.5193 148.094 25.546 148.506 25.551C149.185 25.5616 149.862 25.4566 150.506 25.2404C151.055 25.0459 151.538 24.6984 151.897 24.2388C152.313 23.6381 152.596 22.955 152.727 22.2355C152.925 21.2296 153.015 20.2055 152.997 19.1804C153.019 18.1713 152.925 17.163 152.717 16.1754C152.579 15.4758 152.281 14.8176 151.847 14.2522ZM150.726 21.4141C150.641 21.9255 150.451 22.4134 150.166 22.8465C149.917 23.1913 149.568 23.4503 149.166 23.5877C148.722 23.7383 148.254 23.8095 147.785 23.798H146.125V14.5327H147.785C148.254 14.5212 148.722 14.5924 149.166 14.743C149.569 14.8774 149.92 15.137 150.166 15.4843C150.451 15.9137 150.641 16.3984 150.726 16.9066C150.849 17.6513 150.906 18.4056 150.896 19.1604C150.906 19.9152 150.849 20.6694 150.726 21.4141Z" fill="white"/>
<path d="M154.417 14.9029V13.15H164.12V14.9029H160.339V30.6791H158.208V14.9029H154.417Z" fill="white"/>
</svg>
